<?xml version="1.0" encoding="UTF-8"?>
<svg xmlns="http://www.w3.org/2000/svg" xmlns:xlink="http://www.w3.org/1999/xlink" width="250px" height="56px" viewBox="0 0 249 56" version="1.1">
<defs>
<clipPath id="clip1">
  <path d="M 80.894531 7.65625 L 248.652344 7.65625 L 248.652344 47.742188 L 80.894531 47.742188 Z M 80.894531 7.65625 "/>
</clipPath>
<clipPath id="clip2">
  <path d="M 0.0429688 0 L 71.441406 0 L 71.441406 55.398438 L 0.0429688 55.398438 Z M 0.0429688 0 "/>
</clipPath>
</defs>
<g id="surface1">
<g clip-path="url(#clip1)" clip-rule="nonzero">
<path style=" stroke:none;fill-rule:nonzero;fill:rgb(28.627451%,73.72549%,88.627451%);fill-opacity:1;" d="M 86.855469 17.949219 L 86.894531 22.785156 L 86.742188 29.480469 C 86.765625 29.582031 86.804688 29.632812 86.855469 29.632812 C 86.90625 29.632812 86.945312 29.609375 86.972656 29.558594 C 87.488281 28.835938 88.128906 28.472656 88.890625 28.472656 C 89.648438 28.472656 90.027344 28.628906 90.027344 28.9375 C 90.027344 29.917969 90.214844 30.671875 90.589844 31.199219 C 90.960938 31.730469 91.488281 31.996094 92.175781 31.996094 C 92.855469 31.996094 93.511719 31.53125 94.148438 30.601562 C 94.777344 29.671875 95.089844 28.433594 95.089844 26.886719 C 95.089844 26.371094 94.988281 25.753906 94.78125 25.03125 C 94.367188 23.585938 93.59375 22.617188 92.460938 22.128906 C 91.636719 21.792969 90.296875 21.625 88.441406 21.625 C 88.234375 21.625 88.132812 21.484375 88.132812 21.199219 C 88.132812 19.753906 88.390625 19.007812 88.90625 18.957031 C 89.601562 18.957031 90.335938 18.773438 91.109375 18.414062 C 92.65625 17.691406 93.425781 16.207031 93.425781 13.964844 C 93.425781 11.539062 92.035156 10.328125 89.253906 10.328125 L 88.054688 10.402344 C 87.589844 10.507812 87.332031 10.699219 87.28125 10.984375 L 87.28125 11.101562 C 87 12.132812 86.855469 14.414062 86.855469 17.949219 Z M 81.175781 35.902344 L 81.25 35.476562 C 81.507812 35.011719 81.726562 33.121094 81.910156 29.804688 C 82.089844 26.492188 82.179688 23.398438 82.179688 20.519531 C 82.179688 17.644531 82.121094 15.335938 82.007812 13.59375 C 81.890625 11.855469 81.574219 10.597656 81.058594 9.824219 C 80.957031 9.695312 80.902344 9.539062 80.902344 9.359375 C 80.902344 9.179688 81.058594 9.023438 81.367188 8.894531 C 83.480469 8.070312 86.355469 7.65625 89.988281 7.65625 C 90.890625 7.65625 91.867188 7.777344 92.925781 8.019531 C 93.980469 8.269531 94.851562 8.574219 95.539062 8.933594 C 96.21875 9.292969 96.835938 9.847656 97.394531 10.597656 C 97.945312 11.34375 98.257812 12.234375 98.335938 13.265625 C 98.335938 17.007812 96.789062 19.160156 93.699219 19.730469 C 93.542969 19.78125 93.464844 19.835938 93.464844 19.898438 C 93.464844 19.964844 93.53125 20.039062 93.660156 20.117188 C 95.257812 20.375 96.597656 21.019531 97.679688 22.050781 C 98.222656 22.539062 98.710938 23.300781 99.148438 24.332031 C 99.585938 25.367188 99.804688 26.550781 99.804688 27.894531 C 99.804688 29.621094 99.304688 31.261719 98.296875 32.808594 C 97.472656 34.070312 96.273438 34.972656 94.703125 35.515625 C 93.828125 35.824219 92.847656 35.980469 91.765625 35.980469 C 89.058594 35.980469 87.347656 35.117188 86.625 33.386719 C 86.597656 33.3125 86.558594 33.273438 86.507812 33.273438 L 86.355469 33.425781 C 85.8125 35.230469 84.265625 36.175781 81.714844 36.25 C 81.355469 36.25 81.175781 36.136719 81.175781 35.902344 Z M 105.101562 20.773438 C 104.429688 20.800781 103.945312 20.816406 103.648438 20.828125 C 103.355469 20.84375 103.207031 20.773438 103.207031 20.617188 C 103.207031 20.464844 103.285156 20.308594 103.4375 20.15625 C 105.089844 18.632812 107.871094 17.871094 111.789062 17.871094 C 113.128906 17.871094 114.183594 17.988281 114.957031 18.21875 L 115.34375 18.335938 C 115.652344 18.464844 115.808594 18.605469 115.808594 18.761719 C 115.808594 18.890625 115.71875 18.992188 115.539062 19.070312 C 114.84375 19.277344 114.171875 19.605469 113.527344 20.054688 C 112.882812 20.507812 112.5625 20.824219 112.5625 21.007812 L 112.792969 21.277344 C 113.617188 21.742188 114.253906 22.476562 114.703125 23.480469 C 115.15625 24.488281 115.410156 25.378906 115.460938 26.152344 L 115.539062 27.351562 C 115.539062 29.90625 114.828125 32.007812 113.410156 33.660156 C 111.996094 35.308594 110.0625 36.136719 107.613281 36.136719 C 106.375 36.136719 105.308594 35.914062 104.40625 35.476562 C 103.503906 35.039062 102.839844 34.542969 102.410156 33.984375 C 101.988281 33.433594 101.648438 32.808594 101.390625 32.109375 C 101.082031 31.15625 100.925781 30.167969 100.925781 29.148438 C 100.925781 28.128906 101.097656 27.105469 101.445312 26.074219 C 101.796875 25.042969 102.195312 24.28125 102.644531 23.792969 C 103.097656 23.300781 103.605469 22.902344 104.171875 22.59375 C 104.894531 22.207031 105.476562 22.011719 105.914062 22.011719 C 106.351562 22.011719 106.570312 22.101562 106.570312 22.28125 L 106.339844 22.667969 C 105.769531 23.339844 105.363281 24.21875 105.117188 25.300781 C 104.875 26.382812 104.753906 27.34375 104.753906 28.179688 C 104.753906 29.019531 104.855469 29.855469 105.0625 30.679688 C 105.269531 31.503906 105.5 32.117188 105.757812 32.511719 C 106.015625 32.914062 106.3125 33.21875 106.648438 33.425781 C 107.136719 33.734375 107.652344 33.890625 108.195312 33.890625 C 108.734375 33.890625 109.261719 33.675781 109.777344 33.25 C 110.292969 32.824219 110.667969 32.265625 110.898438 31.570312 C 111.363281 30.28125 111.59375 28.949219 111.59375 27.582031 C 111.59375 25.417969 111.046875 23.742188 109.949219 22.554688 C 108.855469 21.367188 107.238281 20.773438 105.101562 20.773438 Z M 121.335938 20.773438 C 120.664062 20.800781 120.179688 20.816406 119.882812 20.828125 C 119.589844 20.84375 119.441406 20.773438 119.441406 20.617188 C 119.441406 20.464844 119.519531 20.308594 119.671875 20.15625 C 121.324219 18.632812 124.101562 17.871094 128.015625 17.871094 C 129.359375 17.871094 130.417969 17.988281 131.191406 18.21875 L 131.578125 18.335938 C 131.886719 18.464844 132.042969 18.605469 132.042969 18.761719 C 132.042969 18.890625 131.953125 18.992188 131.773438 19.070312 C 131.070312 19.277344 130.398438 19.605469 129.753906 20.054688 C 129.109375 20.507812 128.789062 20.824219 128.789062 21.007812 L 129.027344 21.277344 C 129.851562 21.742188 130.488281 22.476562 130.9375 23.480469 C 131.390625 24.488281 131.640625 25.378906 131.6875 26.152344 L 131.773438 27.351562 C 131.773438 29.90625 131.0625 32.007812 129.644531 33.660156 C 128.230469 35.308594 126.296875 36.136719 123.847656 36.136719 C 122.609375 36.136719 121.542969 35.914062 120.640625 35.476562 C 119.738281 35.039062 119.074219 34.542969 118.644531 33.984375 C 118.222656 33.433594 117.882812 32.808594 117.625 32.109375 C 117.316406 31.15625 117.160156 30.167969 117.160156 29.148438 C 117.160156 28.128906 117.332031 27.105469 117.679688 26.074219 C 118.03125 25.042969 118.429688 24.28125 118.878906 23.792969 C 119.332031 23.300781 119.839844 22.902344 120.40625 22.59375 C 121.128906 22.207031 121.710938 22.011719 122.148438 22.011719 C 122.582031 22.011719 122.796875 22.101562 122.796875 22.28125 L 122.574219 22.667969 C 122.003906 23.339844 121.597656 24.21875 121.351562 25.300781 C 121.109375 26.382812 120.988281 27.34375 120.988281 28.179688 C 120.988281 29.019531 121.089844 29.855469 121.296875 30.679688 C 121.503906 31.503906 121.734375 32.117188 121.992188 32.511719 C 122.25 32.914062 122.546875 33.21875 122.882812 33.425781 C 123.371094 33.734375 123.886719 33.890625 124.429688 33.890625 C 124.96875 33.890625 125.496094 33.675781 126.011719 33.25 C 126.527344 32.824219 126.902344 32.265625 127.132812 31.570312 C 127.59375 30.28125 127.820312 28.949219 127.820312 27.582031 C 127.820312 25.417969 127.277344 23.742188 126.183594 22.554688 C 125.085938 21.367188 123.46875 20.773438 121.335938 20.773438 Z M 141.738281 22.824219 C 141.632812 22.929688 141.582031 23.035156 141.582031 23.148438 C 141.582031 23.269531 141.820312 23.378906 142.300781 23.480469 C 142.777344 23.585938 143.296875 23.871094 143.863281 24.332031 C 144.429688 24.796875 144.855469 25.300781 145.140625 25.84375 C 145.679688 26.898438 145.976562 27.828125 146.027344 28.628906 L 146.066406 29.132812 C 146.195312 32.148438 146.75 34.214844 147.726562 35.324219 C 147.855469 35.503906 147.921875 35.632812 147.921875 35.710938 C 147.921875 35.992188 147.5625 36.136719 146.839844 36.136719 C 144.675781 36.136719 143.296875 35.683594 142.703125 34.78125 C 142.394531 34.417969 142.238281 33.296875 142.238281 31.414062 L 142.238281 30.445312 C 142.238281 28.046875 141.941406 26.382812 141.351562 25.457031 C 141.042969 25.015625 140.664062 24.796875 140.214844 24.796875 C 139.761719 24.796875 139.289062 25.191406 138.800781 25.972656 C 138.308594 26.761719 138.066406 27.429688 138.066406 27.972656 C 138.066406 30.136719 138.117188 31.648438 138.21875 32.496094 C 138.324219 33.347656 138.375 33.789062 138.375 33.8125 C 138.375 34.5625 137.867188 35.140625 136.851562 35.554688 C 135.832031 35.96875 134.871094 36.175781 133.96875 36.175781 C 133.632812 36.175781 133.464844 35.96875 133.464844 35.554688 L 133.464844 35.398438 C 134.082031 32.226562 134.394531 27.222656 134.394531 20.386719 C 134.394531 18.144531 134.339844 16.246094 134.238281 14.699219 L 134.160156 13.925781 C 134.109375 13.203125 133.960938 12.582031 133.71875 12.066406 C 133.472656 11.550781 133.234375 11.214844 133 11.0625 L 132.691406 10.867188 C 132.511719 10.765625 132.421875 10.648438 132.421875 10.519531 C 132.421875 10.105469 133.039062 9.644531 134.277344 9.125 C 135.515625 8.609375 136.582031 8.351562 137.484375 8.351562 C 137.898438 8.378906 138.117188 8.535156 138.140625 8.816406 C 138.269531 9.847656 138.335938 11.96875 138.335938 15.179688 C 138.335938 18.394531 138.257812 20.953125 138.105469 22.863281 C 138.105469 23.171875 138.15625 23.328125 138.257812 23.328125 C 138.363281 23.328125 138.523438 23.179688 138.746094 22.878906 C 138.960938 22.585938 139.347656 22.113281 139.90625 21.46875 C 140.457031 20.824219 141.203125 20.078125 142.148438 19.226562 C 143.085938 18.375 143.84375 17.949219 144.425781 17.949219 C 145.003906 17.949219 145.578125 18.089844 146.144531 18.375 C 146.710938 18.660156 146.992188 18.929688 146.992188 19.1875 L 146.570312 19.457031 C 145.101562 20 143.488281 21.121094 141.738281 22.824219 Z M 152.636719 14.660156 L 151.710938 14.621094 C 151.015625 14.621094 150.5625 14.789062 150.355469 15.125 C 150.304688 15.203125 150.242188 15.242188 150.164062 15.242188 C 149.828125 15.242188 149.660156 14.664062 149.660156 13.515625 C 149.660156 12.371094 149.835938 11.640625 150.1875 11.332031 C 150.53125 11.023438 151.136719 10.867188 152.003906 10.867188 C 152.863281 10.867188 153.449219 11.015625 153.757812 11.308594 C 154.066406 11.609375 154.222656 12.105469 154.222656 12.804688 C 154.222656 13.5 154.105469 13.980469 153.875 14.25 C 153.640625 14.523438 153.230469 14.660156 152.636719 14.660156 Z M 149.546875 34.199219 L 149.96875 25.183594 C 149.96875 23.042969 149.726562 21.585938 149.234375 20.8125 C 149.082031 20.554688 148.902344 20.359375 148.695312 20.230469 C 148.539062 20.179688 148.464844 20.078125 148.464844 19.921875 C 148.464844 19.457031 149.121094 19.007812 150.433594 18.566406 C 151.75 18.128906 152.710938 17.910156 153.316406 17.910156 C 153.921875 17.910156 154.234375 18.066406 154.261719 18.375 C 154.261719 18.890625 154.191406 20.351562 154.050781 22.761719 C 153.90625 25.175781 153.835938 27.710938 153.835938 30.371094 C 153.835938 33.027344 153.992188 34.679688 154.300781 35.324219 C 154.375 35.453125 154.414062 35.582031 154.414062 35.710938 C 154.414062 36.046875 153.925781 36.210938 152.945312 36.210938 C 151.96875 36.210938 150.960938 35.953125 149.933594 35.4375 C 149.675781 35.308594 149.546875 34.898438 149.546875 34.199219 Z M 156.773438 35.632812 C 157.238281 32.847656 157.46875 29.503906 157.46875 25.609375 C 157.46875 21.714844 157.351562 19.1875 157.121094 18.027344 C 157.121094 17.691406 157.507812 17.523438 158.28125 17.523438 C 159.464844 17.523438 160.253906 17.976562 160.640625 18.878906 C 160.664062 18.957031 160.730469 18.992188 160.832031 18.992188 C 160.933594 18.992188 161.011719 18.96875 161.0625 18.917969 C 161.863281 18.089844 163.101562 17.679688 164.773438 17.679688 C 166.449219 17.679688 167.777344 18.105469 168.757812 18.957031 C 169.734375 19.804688 170.226562 21.042969 170.226562 22.667969 C 170.226562 23.648438 170.140625 25.042969 169.96875 26.847656 C 169.804688 28.65625 169.722656 29.996094 169.722656 30.871094 C 169.722656 32.960938 170.070312 34.472656 170.765625 35.398438 C 170.871094 35.527344 170.921875 35.65625 170.921875 35.785156 C 170.921875 36.121094 170.558594 36.289062 169.839844 36.289062 C 166.644531 36.289062 165.046875 34.871094 165.046875 32.035156 C 165.046875 30.949219 165.289062 29.441406 165.78125 27.507812 C 166.269531 25.570312 166.515625 24.101562 166.515625 23.09375 C 166.515625 21.03125 165.664062 20 163.964844 20 C 163.136719 20 162.511719 20.246094 162.085938 20.734375 C 161.660156 21.226562 161.425781 21.785156 161.375 22.414062 C 161.320312 23.050781 161.296875 24.242188 161.296875 25.996094 C 161.296875 28.679688 161.386719 31.015625 161.566406 33 L 161.644531 33.851562 C 161.644531 34.574219 161.171875 35.136719 160.230469 35.539062 C 159.292969 35.9375 158.480469 36.136719 157.792969 36.136719 C 157.113281 36.136719 156.773438 35.96875 156.773438 35.632812 Z M 174.746094 19.746094 C 175.3125 19.167969 176.0625 18.675781 176.988281 18.273438 C 177.917969 17.875 178.804688 17.679688 179.65625 17.679688 C 180.507812 17.679688 181.371094 17.871094 182.246094 18.257812 C 182.347656 18.257812 182.425781 18.234375 182.476562 18.179688 C 183.148438 17.511719 184.128906 17.175781 185.414062 17.175781 C 185.726562 17.175781 185.878906 17.316406 185.878906 17.601562 C 185.878906 17.625 185.855469 17.742188 185.800781 17.949219 C 185.75 18.15625 185.6875 18.457031 185.609375 18.855469 C 185.53125 19.257812 185.46875 19.742188 185.414062 20.308594 C 185.234375 21.78125 185.136719 23.40625 185.121094 25.183594 C 185.113281 26.964844 185.105469 28.746094 185.105469 30.523438 L 185.222656 38.648438 C 185.222656 41.253906 184.550781 43.421875 183.210938 45.152344 C 182.671875 45.847656 181.851562 46.453125 180.753906 46.96875 C 179.660156 47.484375 178.382812 47.742188 176.910156 47.742188 C 176.578125 47.535156 176.410156 47.332031 176.410156 47.125 C 176.410156 46.917969 176.550781 46.75 176.835938 46.621094 C 178.457031 45.875 179.617188 44.101562 180.3125 41.304688 C 181.007812 38.503906 181.355469 34.253906 181.355469 28.550781 L 181.28125 23.132812 L 181.164062 20.503906 C 181.164062 20.269531 180.804688 20.101562 180.082031 20 C 179.152344 20 178.375 20.300781 177.738281 20.90625 C 177.109375 21.515625 176.679688 22.308594 176.449219 23.289062 C 176.035156 24.863281 175.828125 26.222656 175.828125 27.367188 C 175.828125 28.519531 176.015625 29.53125 176.386719 30.410156 C 176.761719 31.285156 177.414062 31.722656 178.34375 31.722656 C 178.601562 31.722656 178.835938 31.671875 179.054688 31.570312 C 179.273438 31.464844 179.425781 31.414062 179.5 31.414062 C 179.757812 31.414062 179.886719 31.671875 179.886719 32.1875 C 179.886719 32.703125 179.851562 33.121094 179.773438 33.441406 C 179.695312 33.765625 179.539062 34.125 179.308594 34.511719 C 178.792969 35.363281 177.789062 35.785156 176.292969 35.785156 C 174.800781 35.785156 173.730469 35.246094 173.085938 34.160156 C 172.414062 33.050781 172.027344 32.058594 171.925781 31.183594 C 171.769531 29.867188 171.695312 29.003906 171.695312 28.589844 C 171.695312 28.175781 171.699219 27.847656 171.710938 27.597656 C 171.726562 27.355469 171.789062 26.867188 171.902344 26.128906 C 172.019531 25.394531 172.175781 24.699219 172.367188 24.039062 C 172.5625 23.382812 172.867188 22.648438 173.277344 21.835938 C 173.691406 21.023438 174.179688 20.328125 174.746094 19.746094 Z M 204.308594 26.5 C 204.800781 26.5 205.042969 27.121094 205.042969 28.359375 C 205.042969 29.597656 204.8125 30.707031 204.347656 31.683594 C 203.882812 32.664062 203.324219 33.425781 202.671875 33.96875 C 202.011719 34.511719 201.269531 34.949219 200.445312 35.285156 C 197.6875 36.496094 195.109375 36.46875 192.714844 35.207031 C 191.503906 34.5625 190.574219 33.792969 189.929688 32.902344 C 189.285156 32.011719 188.769531 30.949219 188.382812 29.710938 C 187.792969 27.855469 187.496094 25.90625 187.496094 23.871094 C 187.496094 21.832031 187.6875 19.921875 188.074219 18.144531 C 188.460938 16.363281 189.054688 14.664062 189.851562 13.050781 C 190.652344 11.441406 191.785156 10.144531 193.253906 9.164062 C 194.722656 8.183594 196.425781 7.695312 198.355469 7.695312 C 199.183594 7.695312 200.039062 7.828125 200.929688 8.097656 C 201.816406 8.371094 202.542969 8.707031 203.113281 9.105469 C 203.679688 9.507812 204.179688 10.121094 204.617188 10.945312 C 205.058594 11.769531 205.277344 12.738281 205.277344 13.847656 C 205.277344 15.035156 204.992188 16.105469 204.425781 17.058594 C 204.167969 17.496094 203.753906 17.890625 203.1875 18.234375 C 202.621094 18.585938 201.953125 18.761719 201.179688 18.761719 C 199.992188 18.761719 199.15625 18.234375 198.667969 17.175781 C 198.460938 16.761719 198.355469 16.3125 198.355469 15.820312 C 198.355469 15.332031 198.523438 15.046875 198.859375 14.96875 C 199.21875 14.867188 199.554688 14.582031 199.863281 14.117188 C 200.175781 13.652344 200.328125 13.113281 200.328125 12.492188 C 200.328125 12.003906 200.199219 11.578125 199.941406 11.214844 C 199.453125 10.570312 198.742188 10.25 197.816406 10.25 C 196.886719 10.25 196.046875 10.675781 195.289062 11.527344 C 194.523438 12.378906 193.949219 13.449219 193.5625 14.738281 C 192.792969 17.316406 192.40625 19.691406 192.40625 21.855469 C 192.40625 24.023438 192.699219 25.765625 193.292969 27.082031 C 194.015625 28.707031 194.929688 29.789062 196.039062 30.332031 C 196.734375 30.667969 197.53125 30.835938 198.433594 30.835938 C 199.953125 30.835938 201.320312 30.152344 202.53125 28.785156 C 203.046875 28.242188 203.472656 27.597656 203.808594 26.847656 C 203.9375 26.617188 204.105469 26.5 204.308594 26.5 Z M 220.082031 23.753906 L 220.003906 28.707031 C 220.003906 32.136719 220.378906 34.199219 221.125 34.898438 C 221.226562 35 221.277344 35.117188 221.277344 35.246094 C 221.277344 35.632812 220.449219 35.824219 218.789062 35.824219 C 217.125 35.824219 216.242188 35.335938 216.136719 34.355469 C 216.113281 34.125 216.097656 33.644531 216.097656 32.921875 L 216.253906 26.734375 C 216.253906 26.550781 216.152344 26.460938 215.945312 26.460938 C 214.707031 26.460938 213.546875 26.808594 212.464844 27.507812 C 211.382812 28.203125 210.84375 29.09375 210.84375 30.175781 C 210.84375 30.742188 210.996094 31.222656 211.304688 31.609375 C 211.617188 31.996094 211.996094 32.1875 212.449219 32.1875 C 212.898438 32.1875 213.273438 32.097656 213.570312 31.917969 C 213.863281 31.738281 214.039062 31.632812 214.089844 31.609375 C 214.527344 31.660156 214.746094 32.117188 214.746094 32.976562 C 214.746094 33.84375 214.347656 34.542969 213.546875 35.066406 C 212.75 35.597656 211.910156 35.863281 211.035156 35.863281 C 210.160156 35.863281 209.40625 35.710938 208.777344 35.398438 C 208.144531 35.089844 207.6875 34.742188 207.402344 34.355469 C 207.117188 33.96875 206.886719 33.53125 206.707031 33.039062 C 206.527344 32.445312 206.4375 31.929688 206.4375 31.492188 C 206.4375 29.6875 207.003906 28.242188 208.136719 27.160156 C 209.269531 26.074219 210.726562 25.300781 212.503906 24.835938 C 214.847656 24.371094 216.074219 23.945312 216.175781 23.558594 C 216.253906 23.277344 216.292969 22.796875 216.292969 22.128906 C 216.292969 20.761719 215.597656 20.078125 214.207031 20.078125 C 213.613281 20.078125 213.085938 20.261719 212.621094 20.632812 C 212.15625 21.011719 211.925781 21.484375 211.925781 22.050781 L 212.15625 22.980469 C 212.105469 23.417969 211.640625 23.675781 210.765625 23.753906 L 210.339844 23.792969 C 209.566406 23.792969 208.957031 23.597656 208.507812 23.210938 C 208.054688 22.824219 207.828125 22.308594 207.828125 21.664062 C 207.828125 21.25 207.964844 20.792969 208.238281 20.285156 C 208.503906 19.785156 208.84375 19.378906 209.257812 19.070312 C 209.667969 18.761719 210.308594 18.484375 211.175781 18.234375 C 212.035156 17.992188 212.867188 17.871094 213.664062 17.871094 C 214.464844 17.871094 215.082031 17.898438 215.519531 17.949219 C 215.957031 18 216.558594 18.121094 217.320312 18.3125 C 218.078125 18.507812 218.710938 18.878906 219.214844 19.417969 C 219.714844 19.960938 219.984375 20.535156 220.027344 21.136719 C 220.0625 21.746094 220.082031 22.617188 220.082031 23.753906 Z M 234.421875 22.050781 L 234.226562 24.992188 L 234.382812 26.347656 C 234.382812 26.835938 233.917969 27.082031 232.992188 27.082031 C 231.109375 27.082031 230.167969 26.371094 230.167969 24.953125 C 230.167969 24.617188 230.257812 24.152344 230.441406 23.558594 C 230.621094 22.964844 230.710938 22.449219 230.710938 22.011719 C 230.710938 21.574219 230.582031 21.191406 230.324219 20.867188 C 230.066406 20.546875 229.691406 20.386719 229.203125 20.386719 C 228.714844 20.386719 228.292969 20.558594 227.941406 20.90625 C 227.597656 21.257812 227.386719 21.613281 227.308594 21.972656 L 227.152344 22.515625 C 227 23.316406 226.921875 24.648438 226.921875 26.515625 C 226.921875 28.390625 226.949219 29.859375 227 30.925781 C 227.050781 32 227.101562 32.734375 227.152344 33.132812 C 227.207031 33.535156 227.230469 33.773438 227.230469 33.851562 C 227.230469 34.496094 226.832031 35.019531 226.035156 35.421875 C 225.234375 35.820312 224.4375 36.019531 223.636719 36.019531 C 222.839844 36.019531 222.4375 35.851562 222.4375 35.515625 L 222.632812 34.316406 C 222.992188 32.074219 223.171875 29.144531 223.171875 25.53125 C 223.171875 21.921875 223.042969 19.472656 222.785156 18.179688 C 222.785156 17.871094 223.058594 17.71875 223.597656 17.71875 C 224.988281 17.71875 225.917969 18.195312 226.382812 19.148438 C 226.40625 19.25 226.449219 19.304688 226.511719 19.304688 C 226.578125 19.304688 226.753906 19.1875 227.039062 18.957031 C 227.886719 18.257812 228.894531 17.910156 230.054688 17.910156 C 230.773438 17.910156 231.496094 18.050781 232.21875 18.335938 C 233.6875 18.929688 234.421875 20.167969 234.421875 22.050781 Z M 239.832031 25.53125 L 239.871094 26.5 C 239.871094 26.65625 239.972656 26.734375 240.179688 26.734375 C 241.003906 26.65625 241.726562 26.441406 242.34375 26.089844 C 242.964844 25.746094 243.425781 25.351562 243.738281 24.914062 C 244.355469 23.960938 244.691406 23.132812 244.742188 22.4375 L 244.78125 21.972656 C 244.78125 20.582031 244.226562 19.882812 243.117188 19.882812 C 242.292969 19.882812 241.625 20.246094 241.109375 20.96875 C 240.257812 22.101562 239.832031 23.625 239.832031 25.53125 Z M 248.257812 30.679688 C 248.257812 31.660156 248.058594 32.515625 247.65625 33.25 C 247.257812 33.988281 246.808594 34.527344 246.304688 34.875 C 245.804688 35.226562 245.21875 35.503906 244.546875 35.710938 C 243.699219 35.96875 242.886719 36.097656 242.113281 36.097656 C 239.949219 36.097656 238.351562 35.285156 237.320312 33.660156 C 236.289062 32.035156 235.773438 29.960938 235.773438 27.445312 C 235.773438 24.933594 236.410156 22.695312 237.683594 20.734375 C 238.960938 18.773438 240.875 17.792969 243.425781 17.792969 C 245.746094 17.792969 247.320312 18.605469 248.144531 20.230469 C 248.476562 20.851562 248.644531 21.4375 248.644531 21.988281 C 248.644531 22.546875 248.621094 22.984375 248.570312 23.304688 C 248.515625 23.628906 248.335938 24.113281 248.027344 24.757812 C 247.71875 25.402344 247.304688 25.984375 246.789062 26.5 C 246.273438 27.015625 245.464844 27.507812 244.355469 27.972656 C 243.246094 28.433594 241.945312 28.746094 240.449219 28.898438 C 240.246094 28.898438 240.140625 28.988281 240.140625 29.171875 C 240.140625 29.402344 240.222656 29.742188 240.390625 30.191406 C 240.558594 30.644531 240.746094 31.027344 240.953125 31.335938 C 241.519531 32.058594 242.359375 32.421875 243.464844 32.421875 C 244.574219 32.421875 245.515625 32.058594 246.289062 31.335938 C 246.699219 30.949219 247.035156 30.472656 247.292969 29.90625 C 247.394531 29.699219 247.53125 29.597656 247.695312 29.597656 C 247.863281 29.597656 248 29.738281 248.105469 30.023438 C 248.207031 30.304688 248.257812 30.523438 248.257812 30.679688 Z M 248.257812 30.679688 "/>
</g>
<g clip-path="url(#clip2)" clip-rule="nonzero">
<path style=" stroke:none;fill-rule:nonzero;fill:rgb(28.627451%,73.72549%,88.627451%);fill-opacity:1;" d="M 52.820312 0 C 45.171875 0 38.609375 4.621094 35.742188 11.21875 C 32.875 4.621094 26.320312 0 18.671875 0 C 8.382812 0 0.0429688 8.347656 0.0429688 18.644531 C 0.0429688 24.777344 3.054688 30.179688 7.613281 33.574219 L 35.742188 55.398438 L 63.871094 33.574219 C 68.441406 30.179688 71.441406 24.777344 71.441406 18.644531 C 71.441406 8.347656 63.101562 0 52.820312 0 M 53.386719 30.144531 L 43.550781 30.144531 L 40.820312 22.753906 L 34.828125 41.226562 L 28.804688 27.722656 L 28.199219 29.441406 L 18.101562 29.441406 L 18.101562 26.628906 L 26.207031 26.628906 L 28.488281 20.109375 L 34.414062 33.394531 L 40.648438 14.175781 L 45.511719 27.332031 L 53.386719 27.332031 Z M 53.386719 30.144531 "/>
</g>
</g>
</svg>
